<?xml version="1.0" encoding="utf-8"?>
<!-- Generator: Adobe Illustrator 26.1.0, SVG Export Plug-In . SVG Version: 6.00 Build 0)  -->
<svg version="1.1" id="Layer_1" xmlns="http://www.w3.org/2000/svg" xmlns:xlink="http://www.w3.org/1999/xlink" x="0px" y="0px"
	 viewBox="0 0 64 50" style="enable-background:new 0 0 64 50;" xml:space="preserve">
<style type="text/css">
	.st0{fill:#FFE9D5;}
	.st1{fill:#FFC250;}
	.st2{fill:#FFD064;}
	.st3{fill:#FFE19D;}
</style>
<path class="st0" d="M2.3,42.9c-0.3,0-0.6-0.1-0.9-0.2c-0.2-0.1-0.4-0.3-0.6-0.6c-0.1-0.3-0.2-0.5-0.2-0.9c0-0.3,0.1-0.6,0.2-0.8
	c0.1-0.3,0.3-0.4,0.6-0.6c0.3-0.1,0.5-0.2,0.9-0.2c0.3,0,0.6,0.1,0.8,0.2c0.3,0.1,0.4,0.3,0.6,0.6c0.1,0.3,0.2,0.5,0.2,0.9
	c0,0.3-0.1,0.6-0.2,0.9c-0.1,0.2-0.3,0.4-0.6,0.6C2.9,42.8,2.6,42.9,2.3,42.9z M2.3,42.6c0.4,0,0.7-0.1,0.9-0.4s0.4-0.6,0.4-1
	s-0.1-0.7-0.4-0.9s-0.5-0.4-0.9-0.4S1.6,40,1.4,40.3S1,40.9,1,41.3s0.1,0.7,0.4,1S1.9,42.6,2.3,42.6z M1.6,42.1v-1.7h0.8
	c0.2,0,0.3,0,0.4,0.1S3,40.7,3,40.9c0,0.3-0.1,0.4-0.4,0.5L3,42.1H2.6l-0.4-0.6H2v0.6H1.6z M2,41.1h0.3c0.1,0,0.1,0,0.2,0
	c0,0,0.1-0.1,0.1-0.2c0-0.1,0-0.1-0.1-0.1c0,0-0.1,0-0.2,0H2V41.1z M6.9,45.3v-5.6H9c0.6,0,1,0.1,1.3,0.4c0.3,0.3,0.4,0.6,0.4,1
	s-0.1,0.6-0.3,0.9c-0.2,0.2-0.4,0.3-0.7,0.4c0.2,0,0.4,0.1,0.6,0.3c0.2,0.1,0.3,0.3,0.4,0.5c0.1,0.2,0.1,0.4,0.1,0.6
	c0,0.3-0.1,0.5-0.2,0.8c-0.1,0.2-0.3,0.4-0.6,0.5s-0.6,0.2-1,0.2C9,45.3,6.9,45.3,6.9,45.3z M7.7,42.1h1.2c0.3,0,0.6-0.1,0.7-0.2
	c0.2-0.2,0.3-0.4,0.3-0.6c0-0.3-0.1-0.5-0.3-0.6c-0.2-0.2-0.4-0.2-0.8-0.2H7.7V42.1z M7.7,44.6h1.2c0.3,0,0.6-0.1,0.8-0.2
	C9.9,44.2,10,44,10,43.7S9.9,43.2,9.7,43s-0.5-0.3-0.8-0.3H7.7V44.6z M13.1,45.4c-0.3,0-0.6-0.1-0.8-0.2c-0.2-0.1-0.4-0.3-0.5-0.4
	c-0.1-0.2-0.2-0.4-0.2-0.6c0-0.4,0.1-0.7,0.4-0.9c0.3-0.2,0.7-0.3,1.3-0.3h1v-0.1c0-0.3-0.1-0.5-0.3-0.7S13.6,42,13.4,42
	c-0.2,0-0.4,0.1-0.6,0.2c-0.2,0.1-0.3,0.3-0.3,0.5h-0.8c0-0.3,0.1-0.5,0.3-0.7s0.4-0.4,0.6-0.5c0.3-0.1,0.5-0.2,0.9-0.2
	c0.6,0,1,0.1,1.3,0.4c0.3,0.3,0.5,0.7,0.5,1.2v2.4h-0.7l-0.1-0.7c-0.1,0.2-0.3,0.4-0.5,0.6C13.8,45.3,13.5,45.4,13.1,45.4z
	 M13.3,44.7c0.2,0,0.4-0.1,0.6-0.2c0.2-0.1,0.3-0.3,0.4-0.4c0.1-0.2,0.1-0.4,0.2-0.6h-0.9c-0.3,0-0.6,0.1-0.7,0.2
	c-0.1,0.1-0.2,0.3-0.2,0.4c0,0.2,0.1,0.3,0.2,0.4C12.9,44.7,13.1,44.7,13.3,44.7z M17.8,45.3c-0.4,0-0.7-0.1-0.9-0.3
	c-0.2-0.2-0.3-0.5-0.3-1v-2h-0.7v-0.7h0.7l0.1-1h0.7v1h1.1V42h-1.1v2c0,0.2,0,0.4,0.1,0.5s0.3,0.1,0.5,0.1h0.5v0.7H17.8z M20.7,45.4
	c-0.3,0-0.6-0.1-0.8-0.2c-0.2-0.1-0.4-0.3-0.5-0.4c-0.1-0.2-0.2-0.4-0.2-0.6c0-0.4,0.1-0.7,0.4-0.9s0.7-0.3,1.3-0.3h1v-0.1
	c0-0.3-0.1-0.5-0.3-0.7C21.4,42,21.2,42,21,42s-0.4,0.1-0.6,0.2c-0.2,0.1-0.3,0.3-0.3,0.5h-0.8c0-0.3,0.1-0.5,0.3-0.7
	c0.2-0.2,0.4-0.4,0.6-0.5c0.3-0.1,0.5-0.2,0.9-0.2c0.6,0,1,0.1,1.3,0.4c0.3,0.3,0.5,0.7,0.5,1.2v2.4h-0.7l-0.1-0.7
	c-0.1,0.2-0.3,0.4-0.5,0.6C21.4,45.3,21.1,45.4,20.7,45.4z M20.9,44.7c0.2,0,0.4-0.1,0.6-0.2c0.2-0.1,0.3-0.3,0.4-0.4
	c0.1-0.2,0.1-0.4,0.2-0.6h-0.9c-0.3,0-0.6,0.1-0.7,0.2c-0.1,0.1-0.2,0.3-0.2,0.4c0,0.2,0.1,0.3,0.2,0.4
	C20.5,44.7,20.7,44.7,20.9,44.7z M25.5,45.3c-0.4,0-0.7-0.1-0.9-0.3c-0.2-0.2-0.3-0.5-0.3-1v-2h-0.7v-0.7h0.7l0.1-1h0.7v1h1.1V42
	h-1.1v2c0,0.2,0,0.4,0.1,0.5s0.3,0.1,0.5,0.1h0.5v0.7H25.5z M28.4,45.4c-0.3,0-0.6-0.1-0.8-0.2c-0.2-0.1-0.4-0.3-0.5-0.4
	c-0.2-0.2-0.2-0.4-0.2-0.6c0-0.4,0.1-0.7,0.4-0.9S28,43,28.6,43h1v-0.1c0-0.3-0.1-0.5-0.3-0.7C29.1,42,28.9,42,28.7,42
	s-0.4,0.1-0.6,0.2c-0.2,0.1-0.3,0.3-0.3,0.5H27c0-0.3,0.1-0.5,0.3-0.7c0.2-0.2,0.4-0.4,0.6-0.5c0.3-0.1,0.5-0.2,0.9-0.2
	c0.6,0,1,0.1,1.3,0.4c0.3,0.3,0.5,0.7,0.5,1.2v2.4h-0.7l-0.1-0.7c-0.1,0.2-0.3,0.4-0.5,0.6C29,45.3,28.7,45.4,28.4,45.4z M28.5,44.7
	c0.2,0,0.4-0.1,0.6-0.2c0.2-0.1,0.3-0.3,0.4-0.4c0.1-0.2,0.1-0.4,0.2-0.6h-0.9c-0.3,0-0.6,0.1-0.7,0.2c-0.1,0.1-0.2,0.3-0.2,0.4
	c0,0.2,0.1,0.3,0.2,0.4C28.1,44.7,28.3,44.7,28.5,44.7z M33.7,45.4c-0.3,0-0.6-0.1-0.8-0.2c-0.2-0.1-0.4-0.3-0.6-0.5v0.6h-0.8v-5.8
	h0.8v2.4c0.1-0.2,0.3-0.4,0.5-0.5s0.5-0.2,0.9-0.2s0.7,0.1,1,0.3s0.5,0.4,0.7,0.7s0.3,0.7,0.3,1.1c0,0.4-0.1,0.8-0.3,1.1
	S35,45,34.7,45.1C34.5,45.3,34.1,45.4,33.7,45.4z M33.6,44.7c0.4,0,0.7-0.1,0.9-0.4c0.2-0.3,0.4-0.6,0.4-1c0-0.3-0.1-0.5-0.2-0.7
	c-0.1-0.2-0.3-0.4-0.4-0.5c-0.2-0.1-0.4-0.2-0.6-0.2c-0.4,0-0.7,0.1-0.9,0.4c-0.2,0.3-0.3,0.6-0.3,1s0.1,0.7,0.3,1
	C32.9,44.5,33.2,44.7,33.6,44.7z M37.1,40.6c-0.2,0-0.3,0-0.4-0.1c-0.1-0.1-0.2-0.2-0.2-0.4c0-0.1,0.1-0.3,0.2-0.4
	c0.1-0.1,0.2-0.2,0.4-0.2s0.3,0.1,0.4,0.2c0.1,0.1,0.2,0.2,0.2,0.4c0,0.1-0.1,0.3-0.2,0.4C37.4,40.5,37.3,40.6,37.1,40.6z
	 M36.7,45.3v-4h0.8v4H36.7z M40.3,45.3c-0.4,0-0.7-0.1-0.9-0.3s-0.3-0.5-0.3-1v-2h-0.7v-0.7h0.7l0.1-1h0.7v1H41V42h-1.1v2
	c0,0.2,0,0.4,0.1,0.5s0.3,0.1,0.5,0.1H41v0.7H40.3z M43.8,45.3v-0.6c0.4-0.3,0.7-0.6,1-0.9c0.3-0.3,0.6-0.6,0.9-0.9
	c0.3-0.3,0.5-0.6,0.6-0.8c0.1-0.3,0.2-0.5,0.2-0.8c0-0.2,0-0.3-0.1-0.5s-0.2-0.3-0.3-0.4c0,0-0.2-0.1-0.4-0.1
	c-0.3,0-0.6,0.1-0.8,0.3s-0.2,0.5-0.2,0.8h-0.8c0-0.4,0.1-0.7,0.2-1c0.2-0.3,0.4-0.5,0.7-0.6s0.6-0.2,0.9-0.2c0.5,0,0.9,0.1,1.3,0.4
	c0.3,0.3,0.5,0.7,0.5,1.2c0,0.3-0.1,0.6-0.2,0.9c-0.1,0.3-0.3,0.6-0.6,0.9c-0.2,0.3-0.5,0.5-0.8,0.8s-0.5,0.5-0.8,0.7h2.6v0.8H43.8z
	 M50.7,45.4c-0.5,0-0.9-0.1-1.3-0.4c-0.4-0.2-0.6-0.6-0.8-1s-0.3-0.9-0.3-1.5s0.1-1.1,0.3-1.5s0.5-0.8,0.8-1
	c0.4-0.2,0.8-0.4,1.3-0.4s0.9,0.1,1.3,0.4c0.4,0.2,0.6,0.6,0.8,1s0.3,0.9,0.3,1.5S53,43.6,52.8,44s-0.5,0.8-0.8,1
	C51.6,45.3,51.2,45.4,50.7,45.4z M50.7,44.6c0.3,0,0.6-0.1,0.8-0.3s0.4-0.4,0.6-0.7c0.1-0.3,0.2-0.7,0.2-1.1s-0.1-0.8-0.2-1.1
	c-0.1-0.3-0.3-0.6-0.6-0.7c-0.2-0.2-0.5-0.3-0.8-0.3s-0.6,0.1-0.8,0.3s-0.4,0.4-0.6,0.7c-0.1,0.3-0.2,0.7-0.2,1.1s0.1,0.8,0.2,1.1
	c0.1,0.3,0.3,0.6,0.6,0.7C50.1,44.6,50.4,44.6,50.7,44.6z M53.9,45.3v-0.6c0.4-0.3,0.7-0.6,1-0.9c0.3-0.3,0.6-0.6,0.9-0.9
	c0.3-0.3,0.5-0.6,0.6-0.8c0.1-0.3,0.2-0.5,0.2-0.8c0-0.2,0-0.3-0.1-0.5s-0.2-0.3-0.3-0.4c-0.1-0.1-0.3-0.1-0.5-0.1
	c-0.3,0-0.6,0.1-0.8,0.3s-0.2,0.5-0.2,0.8h-0.8c0-0.4,0.1-0.7,0.2-1c0.2-0.3,0.4-0.5,0.7-0.6s0.6-0.2,0.9-0.2c0.5,0,0.9,0.1,1.3,0.4
	c0.3,0.3,0.5,0.7,0.5,1.2c0,0.3-0.1,0.6-0.2,0.9c-0.1,0.3-0.3,0.6-0.6,0.9c-0.2,0.3-0.5,0.5-0.8,0.8s-0.5,0.5-0.8,0.7h2.6v0.8H53.9z
	 M58.8,45.3v-0.6c0.4-0.3,0.7-0.6,1-0.9c0.3-0.3,0.6-0.6,0.9-0.9c0.3-0.3,0.5-0.6,0.6-0.8c0.1-0.3,0.2-0.5,0.2-0.8
	c0-0.2,0-0.3-0.1-0.5s-0.2-0.3-0.3-0.4c0,0-0.2-0.1-0.5-0.1s-0.6,0.1-0.8,0.3s-0.2,0.5-0.2,0.8h-0.8c0-0.4,0.1-0.7,0.2-1
	c0.2-0.3,0.4-0.5,0.7-0.6s0.6-0.2,0.9-0.2c0.5,0,0.9,0.1,1.3,0.4c0.3,0.3,0.5,0.7,0.5,1.2c0,0.3-0.1,0.6-0.2,0.9
	c-0.1,0.3-0.3,0.6-0.6,0.9c-0.2,0.3-0.5,0.5-0.8,0.8s-0.5,0.5-0.8,0.7h2.6v0.8H58.8z"/>
<path class="st1" d="M28.8,21.6c-6.4,2-16.8,0-16.9-8.9s11-3.6,11-3.6L28.8,21.6z"/>
<path class="st2" d="M15,7.7c4.5-0.8,7.9,5.2,11.7,11.4s13.6,8.7,19.8,3.4c6.3-5.2,8.9-14.3,1.2-19.8C40-2.7,35.2,9.6,28.6,10
	C22,10.3,21.9,5.4,15,7.7z"/>
<circle class="st3" cx="47.1" cy="12.9" r="2"/>
<circle class="st3" cx="43.3" cy="14.4" r="1.5"/>
<circle class="st3" cx="45.9" cy="16.4" r="1.1"/>
</svg>
